# xmcd CD database file
#
# Track frame offsets:
#	150
#	17139
#	32096
#	49326
#	65490
#	80300
#	95199
#	112994
#	129936
#	144198
#	158682
#	172572
#	189219
#
# Disc length: 2692 seconds
#
# Revision: 2
# Processed by: cddbd v1.5.2PL0 Copyright (c) Steve Scherf et al.
# Submitted via: CDex 1.51
#
DISCID=990a820d
DTITLE=Yölintu - Pienen pojan haaveet
DYEAR=2000
DGENRE=Iskelmä
TTITLE0=Liian suuri city - Yölintu
TTITLE1=Sanaton lempi - Yölintu
TTITLE2=Mies kylmän maan - Yölintu
TTITLE3=Pienen pojan haaveet - Yölintu
TTITLE4=Melkein halvaannuin - Yölintu
TTITLE5=Sulle mun kultani - Yölintu
TTITLE6=Kun sua mä kaipaan - Yölintu
TTITLE7=Kai tulla saan - Yölintu
TTITLE8=Yön hetket - Yölintu
TTITLE9=Useampi nainen - Yölintu
TTITLE10=Kun olit mennyt - Yölintu
TTITLE11=Haamu kipua - Yölintu
TTITLE12=Sinun kanssasi - Yölintu
EXTD=YEAR: 2000
EXTT0=
EXTT1=
EXTT2=
EXTT3=
EXTT4=
EXTT5=
EXTT6=
EXTT7=
EXTT8=
EXTT9=
EXTT10=
EXTT11=
EXTT12=
PLAYORDER=
